<svg width="20" height="20" viewBox="0 0 20 20" fill="none" xmlns="http://www.w3.org/2000/svg">
<path d="M5.83334 15V13.3334M10 15V12.5M14.1667 15V10.8334M2.08334 10C2.08334 6.26837 2.08334 4.40171 3.24251 3.24254C4.40168 2.08337 6.26751 2.08337 10 2.08337C13.7317 2.08337 15.5983 2.08337 16.7575 3.24254C17.9167 4.40171 17.9167 6.26754 17.9167 10C17.9167 13.7317 17.9167 15.5984 16.7575 16.7575C15.5983 17.9167 13.7325 17.9167 10 17.9167C6.26834 17.9167 4.40168 17.9167 3.24251 16.7575C2.08334 15.5984 2.08334 13.7325 2.08334 10Z" stroke="white" stroke-width="1.25" stroke-linecap="round" stroke-linejoin="round"/>
<path d="M4.99335 9.57173C6.78918 9.63173 10.8617 9.36089 13.1783 5.68423M11.66 5.24006L13.2233 4.98839C13.4133 4.96423 13.6933 5.11506 13.7625 5.29423L14.175 6.65923" stroke="white" stroke-width="1.25" stroke-linecap="round" stroke-linejoin="round"/>
</svg>
