<svg width="20" height="20" viewBox="0 0 20 20" fill="none" xmlns="http://www.w3.org/2000/svg">
<path d="M8.23585 1.83913C8.63223 1.79242 9.03163 1.89713 9.35411 2.13231C9.67659 2.36748 9.89835 2.71577 9.97501 3.10747L9.99585 3.24663L10 3.3333V9.16663C10 9.37074 10.075 9.56775 10.2106 9.72028C10.3462 9.87281 10.5331 9.97025 10.7358 9.99413L10.8333 9.99997H16.5C16.942 9.99997 17.366 10.1756 17.6785 10.4881C17.9911 10.8007 18.1667 11.2246 18.1667 11.6666C18.1666 11.73 18.1594 11.7932 18.145 11.855C17.8115 13.2938 17.1016 14.6182 16.0879 15.6925C15.0742 16.7668 13.7932 17.5524 12.3761 17.9687C10.959 18.3851 9.45669 18.4174 8.023 18.0622C6.58931 17.707 5.27578 16.9772 4.21693 15.9474C3.15808 14.9177 2.39194 13.625 1.99699 12.2017C1.60204 10.7785 1.59246 9.27583 1.96923 7.84767C2.346 6.41951 3.09559 5.11714 4.14122 4.07395C5.18686 3.03076 6.49097 2.28423 7.92001 1.9108L8.14501 1.85497L8.23585 1.83913Z" fill="#FF6F00"/>
<path d="M11.6667 2.91665V7.49998C11.6667 7.72099 11.7545 7.93295 11.9108 8.08924C12.067 8.24552 12.279 8.33331 12.5 8.33331H17.0834C17.2166 8.33328 17.3478 8.30131 17.4661 8.2401C17.5844 8.17888 17.6863 8.0902 17.7633 7.98149C17.8402 7.87278 17.89 7.7472 17.9084 7.61529C17.9269 7.48337 17.9134 7.34896 17.8692 7.22331C17.4553 6.04776 16.783 4.98001 15.9018 4.09868C15.0207 3.21735 13.953 2.54489 12.7775 2.13081C12.6518 2.08643 12.5173 2.07284 12.3853 2.09119C12.2533 2.10954 12.1276 2.15929 12.0188 2.23627C11.9099 2.31326 11.8212 2.41522 11.7599 2.53361C11.6986 2.65199 11.6667 2.78335 11.6667 2.91665Z" fill="#FF6F00"/>
</svg>
