<svg width="20" height="20" viewBox="0 0 20 20" fill="none" xmlns="http://www.w3.org/2000/svg">
<path d="M4.16667 15H15.8333V9.19246C15.8333 5.95663 13.2217 3.33329 10 3.33329C6.77833 3.33329 4.16667 5.95663 4.16667 9.19246V15ZM10 1.66663C14.1417 1.66663 17.5 5.03579 17.5 9.19246V16.6666H2.5V9.19246C2.5 5.03579 5.85833 1.66663 10 1.66663ZM7.91667 17.5H12.0833C12.0833 18.0525 11.8638 18.5824 11.4731 18.9731C11.0824 19.3638 10.5525 19.5833 10 19.5833C9.44747 19.5833 8.91756 19.3638 8.52686 18.9731C8.13616 18.5824 7.91667 18.0525 7.91667 17.5Z" fill="white"/>
</svg>
