<svg width="20" height="20" viewBox="0 0 20 20" fill="none" xmlns="http://www.w3.org/2000/svg">
<path d="M12.0669 2.0063C11.9701 1.5887 11.7289 1.2187 11.3859 0.961589C11.0429 0.704483 10.6201 0.576797 10.1921 0.601062C9.76413 0.625328 9.35847 0.799986 9.04672 1.09422C8.73497 1.38844 8.53717 1.78333 8.48822 2.2092C8.43926 2.63507 8.54231 3.06454 8.77917 3.42183C9.01602 3.77912 9.37147 4.04127 9.78279 4.16201C10.1941 4.28275 10.6349 4.25433 11.0273 4.08176C11.4197 3.90918 11.7385 3.60356 11.9275 3.2188C13.0781 3.48081 14.1477 4.01877 15.044 4.7863C15.9403 5.55382 16.6365 6.52787 17.0725 7.62443L18.1819 7.18818C17.6683 5.88755 16.8414 4.73395 15.7746 3.82993C14.7078 2.9259 13.4341 2.29947 12.0669 2.0063ZM10.3031 3.03005C10.2219 3.03266 10.141 3.01892 10.0652 2.98964C9.98941 2.96036 9.92027 2.91615 9.8619 2.85962C9.80354 2.8031 9.75712 2.73542 9.72543 2.6606C9.69373 2.58579 9.6774 2.50537 9.6774 2.42411C9.6774 2.34286 9.69373 2.26244 9.72543 2.18762C9.75712 2.11281 9.80354 2.04513 9.8619 1.9886C9.92027 1.93208 9.98941 1.88786 10.0652 1.85859C10.141 1.82931 10.2219 1.81557 10.3031 1.81818C10.4639 1.81818 10.6181 1.88205 10.7318 1.99574C10.8455 2.10944 10.9094 2.26364 10.9094 2.42443C10.9094 2.58521 10.8455 2.73942 10.7318 2.85311C10.6181 2.9668 10.4639 3.03005 10.3031 3.03005ZM7.63624 3.5338L7.18811 2.42505C5.88749 2.93858 4.73389 3.76551 3.82986 4.83233C2.92584 5.89914 2.29941 7.17279 2.00624 8.54005C1.58864 8.63683 1.21863 8.878 0.961528 9.22101C0.704422 9.56402 0.576736 9.98682 0.601001 10.4148C0.625267 10.8428 0.799925 11.2484 1.09415 11.5602C1.38838 11.8719 1.78327 12.0697 2.20914 12.1187C2.63501 12.1677 3.06448 12.0646 3.42177 11.8277C3.77906 11.5909 4.04121 11.2354 4.16195 10.8241C4.28269 10.4128 4.25427 9.97206 4.0817 9.57967C3.90912 9.18726 3.60349 8.86843 3.21874 8.67943C3.48183 7.52747 4.02154 6.45693 4.79123 5.56039C5.56091 4.66384 6.53739 3.96826 7.63624 3.5338ZM2.42374 10.9101C2.34413 10.9101 2.26529 10.8944 2.19174 10.8639C2.11818 10.8334 2.05135 10.7888 1.99506 10.7325C1.93876 10.6762 1.8941 10.6094 1.86364 10.5358C1.83317 10.4622 1.81749 10.3834 1.81749 10.3038C1.81749 10.2242 1.83317 10.1454 1.86364 10.0718C1.8941 9.99825 1.93876 9.93141 1.99506 9.87512C2.05135 9.81882 2.11818 9.77417 2.19174 9.7437C2.26529 9.71323 2.34413 9.69755 2.42374 9.69755C2.58453 9.69755 2.73873 9.76142 2.85242 9.87512C2.96612 9.98881 3.02999 10.143 3.02999 10.3038C3.02999 10.4646 2.96612 10.6188 2.85242 10.7325C2.73873 10.8462 2.58453 10.9101 2.42374 10.9101ZM10.3031 16.3644C9.965 16.3655 9.63389 16.4609 9.34696 16.6397C9.06002 16.8186 8.82862 17.0739 8.67874 17.3769C7.52797 17.1149 6.45821 16.5769 5.56175 15.8093C4.6653 15.0416 3.96907 14.0674 3.53311 12.9707L2.42436 13.4188C2.93957 14.7216 3.76927 15.8767 4.83943 16.7808C5.90959 17.685 7.18693 18.3102 8.55749 18.6007C8.63622 18.9343 8.80765 19.239 9.05202 19.4794C9.29639 19.7199 9.60374 19.8864 9.93864 19.9597C10.2735 20.033 10.6223 20.0102 10.9448 19.8938C11.2673 19.7775 11.5503 19.5724 11.7613 19.3021C11.9723 19.0319 12.1025 18.7075 12.1371 18.3664C12.1717 18.0254 12.1092 17.6815 11.9567 17.3744C11.8043 17.0673 11.5682 16.8095 11.2756 16.6309C10.983 16.4522 10.6459 16.3598 10.3031 16.3644ZM10.3031 18.7888C10.1423 18.7888 9.98812 18.7249 9.87443 18.6112C9.76074 18.4975 9.69686 18.3433 9.69686 18.1826C9.69686 18.0218 9.76074 17.8676 9.87443 17.7539C9.98812 17.6402 10.1423 17.5763 10.3031 17.5763C10.4639 17.5763 10.6181 17.6402 10.7318 17.7539C10.8455 17.8676 10.9094 18.0218 10.9094 18.1826C10.9094 18.3433 10.8455 18.4975 10.7318 18.6112C10.6181 18.7249 10.4639 18.7888 10.3031 18.7888ZM20 10.3032C20.0011 9.97867 19.9154 9.65977 19.7517 9.37957C19.588 9.09937 19.3523 8.86806 19.0691 8.70965C18.7859 8.55124 18.4654 8.47148 18.141 8.47866C17.8166 8.48584 17.5 8.5797 17.224 8.75048C16.9481 8.92127 16.7229 9.16278 16.5718 9.44995C16.4206 9.73712 16.3491 10.0595 16.3646 10.3836C16.38 10.7078 16.4819 11.0219 16.6597 11.2934C16.8375 11.5648 17.0847 11.7838 17.3756 11.9276C17.1135 13.0782 16.5755 14.1478 15.8078 15.0442C15.0402 15.9405 14.066 16.6367 12.9694 17.0726L13.4181 18.1819C14.7209 17.6667 15.876 16.837 16.7801 15.7669C17.6843 14.6967 18.3095 13.4194 18.6 12.0488C18.9945 11.9555 19.3466 11.733 19.6002 11.4168C19.8539 11.1005 19.9946 10.7086 20 10.3032ZM18.1812 10.9094C18.0205 10.9094 17.8662 10.8456 17.7526 10.7319C17.6389 10.6182 17.575 10.464 17.575 10.3032C17.575 10.1424 17.6389 9.98819 17.7526 9.87449C17.8662 9.7608 18.0205 9.69693 18.1812 9.69693C18.342 9.69693 18.4962 9.7608 18.6099 9.87449C18.7236 9.98819 18.7875 10.1424 18.7875 10.3032C18.7875 10.464 18.7236 10.6182 18.6099 10.7319C18.4962 10.8456 18.342 10.9094 18.1812 10.9094Z" fill="white"/>
<path d="M11.9937 10.2188C12.3386 9.88207 12.5752 9.45022 12.6735 8.97839C12.7717 8.50655 12.7271 8.01614 12.5453 7.56978C12.3635 7.12342 12.0528 6.74137 11.6529 6.47242C11.253 6.20346 10.7819 6.05981 10.3 6.05981C9.81804 6.05981 9.34702 6.20346 8.94708 6.47242C8.54715 6.74137 8.23646 7.12342 8.05467 7.56978C7.87289 8.01614 7.82828 8.50655 7.92652 8.97839C8.02476 9.45022 8.26141 9.88207 8.60624 10.2188C8.19588 10.4962 7.85974 10.8699 7.62723 11.3072C7.39472 11.7446 7.27292 12.2322 7.27249 12.7275V13.9394H13.3331V12.7269C13.3321 12.2311 13.2094 11.7431 12.9759 11.3057C12.7424 10.8683 12.4051 10.4955 11.9937 10.2188ZM9.09062 8.48441C9.09062 8.32518 9.12198 8.16751 9.18291 8.0204C9.24385 7.87329 9.33316 7.73963 9.44575 7.62704C9.55834 7.51445 9.69201 7.42514 9.83911 7.3642C9.98622 7.30327 10.1439 7.27191 10.3031 7.27191C10.4623 7.27191 10.62 7.30327 10.7671 7.3642C10.9142 7.42514 11.0479 7.51445 11.1605 7.62704C11.2731 7.73963 11.3624 7.87329 11.4233 8.0204C11.4843 8.16751 11.5156 8.32518 11.5156 8.48441C11.5156 8.80598 11.3879 9.11438 11.1605 9.34177C10.9331 9.56916 10.6247 9.69691 10.3031 9.69691C9.98154 9.69691 9.67314 9.56916 9.44575 9.34177C9.21836 9.11438 9.09062 8.80598 9.09062 8.48441ZM8.48437 12.7269C8.47989 12.4853 8.52361 12.2452 8.61298 12.0206C8.70236 11.7961 8.83559 11.5916 9.00489 11.4191C9.17419 11.2466 9.37617 11.1097 9.59902 11.0161C9.82187 10.9226 10.0611 10.8744 10.3028 10.8744C10.5445 10.8744 10.7837 10.9226 11.0066 11.0161C11.2294 11.1097 11.4314 11.2466 11.6007 11.4191C11.77 11.5916 11.9033 11.7961 11.9926 12.0206C12.082 12.2452 12.1257 12.4853 12.1212 12.7269H8.48437Z" fill="white"/>
</svg>
